<svg xmlns="http://www.w3.org/2000/svg" viewBox="0 0 1200 420" width="1200" height="420" role="img">
<defs>
<linearGradient id="bg" x1="0" y1="0" x2="1" y2="1"><stop offset="0" stop-color="#eef1f5"/><stop offset="1" stop-color="#dfe3e9"/></linearGradient>
<linearGradient id="tealg" x1="0" y1="0" x2="1" y2="1"><stop offset="0" stop-color="#99d1ce"/><stop offset="1" stop-color="#41a9a5"/></linearGradient>
<linearGradient id="navyg" x1="0" y1="0" x2="0" y2="1"><stop offset="0" stop-color="#3d4a5c"/><stop offset="1" stop-color="#1f2d40"/></linearGradient>

</defs><rect x="120" y="78" width="220" height="42" rx="8" fill="#ffffff" opacity="1" stroke="#c6cdd6"/><text x="146" y="105" font-family="JetBrains Mono,monospace" font-size="14" fill="#2a807d">COPARN</text><path d="M348 99 H520" stroke="#99d1ce" stroke-width="2"/><circle r="4" fill="#41a9a5"><animateMotion dur="2.0s" repeatCount="indefinite" path="M348 99 H520"/></circle><rect x="120" y="134" width="220" height="42" rx="8" fill="#ffffff" opacity="1" stroke="#c6cdd6"/><text x="146" y="161" font-family="JetBrains Mono,monospace" font-size="14" fill="#2a807d">CODECO</text><path d="M348 155 H520" stroke="#99d1ce" stroke-width="2"/><circle r="4" fill="#41a9a5"><animateMotion dur="2.2s" repeatCount="indefinite" path="M348 155 H520"/></circle><rect x="120" y="190" width="220" height="42" rx="8" fill="#ffffff" opacity="1" stroke="#c6cdd6"/><text x="146" y="217" font-family="JetBrains Mono,monospace" font-size="14" fill="#2a807d">COARRI</text><path d="M348 211 H520" stroke="#99d1ce" stroke-width="2"/><circle r="4" fill="#41a9a5"><animateMotion dur="2.4s" repeatCount="indefinite" path="M348 211 H520"/></circle><rect x="120" y="246" width="220" height="42" rx="8" fill="#ffffff" opacity="1" stroke="#c6cdd6"/><text x="146" y="273" font-family="JetBrains Mono,monospace" font-size="14" fill="#2a807d">IE507</text><path d="M348 267 H520" stroke="#99d1ce" stroke-width="2"/><circle r="4" fill="#41a9a5"><animateMotion dur="2.6s" repeatCount="indefinite" path="M348 267 H520"/></circle><rect x="120" y="302" width="220" height="42" rx="8" fill="#ffffff" opacity="1" stroke="#c6cdd6"/><text x="146" y="329" font-family="JetBrains Mono,monospace" font-size="14" fill="#2a807d">T2L</text><path d="M348 323 H520" stroke="#99d1ce" stroke-width="2"/><circle r="4" fill="#41a9a5"><animateMotion dur="2.8s" repeatCount="indefinite" path="M348 323 H520"/></circle><rect x="524" y="120" width="190" height="180" rx="14" fill="url(#navyg)" opacity="1" stroke="none"/><text x="619" y="200" text-anchor="middle" font-family="Poppins,sans-serif" font-size="21" font-weight="600" fill="#ffffff">API</text><text x="619" y="226" text-anchor="middle" font-family="Poppins,sans-serif" font-size="12" fill="#99d1ce">Polski PCS</text><path d="M718 210 C790 210 800 130 880 130" fill="none" stroke="#99d1ce" stroke-width="2"/><rect x="895.0" y="107.0" width="190" height="46" rx="9" fill="#ffffff" opacity="1" stroke="#c6cdd6"/><text x="990" y="135" text-anchor="middle" font-family="Poppins,sans-serif" font-size="13.5" fill="#1f2d40">System klienta</text><path d="M718 210 C790 210 800 206 880 206" fill="none" stroke="#99d1ce" stroke-width="2"/><rect x="895.0" y="183.0" width="190" height="46" rx="9" fill="#ffffff" opacity="1" stroke="#c6cdd6"/><text x="990" y="211" text-anchor="middle" font-family="Poppins,sans-serif" font-size="13.5" fill="#1f2d40">TOS terminala</text><path d="M718 210 C790 210 800 282 880 282" fill="none" stroke="#99d1ce" stroke-width="2"/><rect x="895.0" y="259.0" width="190" height="46" rx="9" fill="#ffffff" opacity="1" stroke="#c6cdd6"/><text x="990" y="287" text-anchor="middle" font-family="Poppins,sans-serif" font-size="13.5" fill="#1f2d40">Systemy KAS</text><text x="48" y="372" font-family="Poppins,Segoe UI,sans-serif" font-size="15" font-weight="600" letter-spacing="1.6" fill="#3d4a5c" opacity=".55">INTEGRACJA SYSTEMÓW</text></svg>