<svg xmlns="http://www.w3.org/2000/svg" viewBox="0 0 1200 420" width="1200" height="420" role="img">
<defs>
<linearGradient id="bg" x1="0" y1="0" x2="1" y2="1"><stop offset="0" stop-color="#eef1f5"/><stop offset="1" stop-color="#dfe3e9"/></linearGradient>
<linearGradient id="tealg" x1="0" y1="0" x2="1" y2="1"><stop offset="0" stop-color="#99d1ce"/><stop offset="1" stop-color="#41a9a5"/></linearGradient>
<linearGradient id="navyg" x1="0" y1="0" x2="0" y2="1"><stop offset="0" stop-color="#3d4a5c"/><stop offset="1" stop-color="#1f2d40"/></linearGradient>

</defs>
<rect width="1200" height="420" fill="url(#bg)"/><g stroke="#1f2d40" stroke-width="1" opacity="0.04"><line x1="0" y1="0" x2="0" y2="420"/><line x1="40" y1="0" x2="40" y2="420"/><line x1="80" y1="0" x2="80" y2="420"/><line x1="120" y1="0" x2="120" y2="420"/><line x1="160" y1="0" x2="160" y2="420"/><line x1="200" y1="0" x2="200" y2="420"/><line x1="240" y1="0" x2="240" y2="420"/><line x1="280" y1="0" x2="280" y2="420"/><line x1="320" y1="0" x2="320" y2="420"/><line x1="360" y1="0" x2="360" y2="420"/><line x1="400" y1="0" x2="400" y2="420"/><line x1="440" y1="0" x2="440" y2="420"/><line x1="480" y1="0" x2="480" y2="420"/><line x1="520" y1="0" x2="520" y2="420"/><line x1="560" y1="0" x2="560" y2="420"/><line x1="600" y1="0" x2="600" y2="420"/><line x1="640" y1="0" x2="640" y2="420"/><line x1="680" y1="0" x2="680" y2="420"/><line x1="720" y1="0" x2="720" y2="420"/><line x1="760" y1="0" x2="760" y2="420"/><line x1="800" y1="0" x2="800" y2="420"/><line x1="840" y1="0" x2="840" y2="420"/><line x1="880" y1="0" x2="880" y2="420"/><line x1="920" y1="0" x2="920" y2="420"/><line x1="960" y1="0" x2="960" y2="420"/><line x1="1000" y1="0" x2="1000" y2="420"/><line x1="1040" y1="0" x2="1040" y2="420"/><line x1="1080" y1="0" x2="1080" y2="420"/><line x1="1120" y1="0" x2="1120" y2="420"/><line x1="1160" y1="0" x2="1160" y2="420"/><line x1="1200" y1="0" x2="1200" y2="420"/><line x1="0" y1="0" x2="1200" y2="0"/><line x1="0" y1="40" x2="1200" y2="40"/><line x1="0" y1="80" x2="1200" y2="80"/><line x1="0" y1="120" x2="1200" y2="120"/><line x1="0" y1="160" x2="1200" y2="160"/><line x1="0" y1="200" x2="1200" y2="200"/><line x1="0" y1="240" x2="1200" y2="240"/><line x1="0" y1="280" x2="1200" y2="280"/><line x1="0" y1="320" x2="1200" y2="320"/><line x1="0" y1="360" x2="1200" y2="360"/><line x1="0" y1="400" x2="1200" y2="400"/></g><rect x="150" y="241.8" width="44" height="88.2" rx="5" fill="#3d4a5c" opacity="1" stroke="none"/><rect x="224" y="208.2" width="44" height="121.8" rx="5" fill="url(#tealg)" opacity="1" stroke="none"/><rect x="298" y="225.0" width="44" height="105.0" rx="5" fill="#3d4a5c" opacity="1" stroke="none"/><rect x="372" y="174.6" width="44" height="155.4" rx="5" fill="url(#tealg)" opacity="1" stroke="none"/><rect x="446" y="191.4" width="44" height="138.6" rx="5" fill="#3d4a5c" opacity="1" stroke="none"/><rect x="520" y="145.2" width="44" height="184.8" rx="5" fill="url(#tealg)" opacity="1" stroke="none"/><rect x="594" y="162.0" width="44" height="168.0" rx="5" fill="#3d4a5c" opacity="1" stroke="none"/><path d="M172 217.8 L172 217.8 L246 184.2 L320 201.0 L394 150.6 L468 167.4 L542 121.19999999999999 L616 138.0" fill="none" stroke="#41a9a5" stroke-width="3.5" stroke-linecap="round"/><circle cx="172" cy="217.8" r="5.5" fill="#ffffff" stroke="#41a9a5" stroke-width="3"/><circle cx="246" cy="184.2" r="5.5" fill="#ffffff" stroke="#41a9a5" stroke-width="3"/><circle cx="320" cy="201.0" r="5.5" fill="#ffffff" stroke="#41a9a5" stroke-width="3"/><circle cx="394" cy="150.6" r="5.5" fill="#ffffff" stroke="#41a9a5" stroke-width="3"/><circle cx="468" cy="167.4" r="5.5" fill="#ffffff" stroke="#41a9a5" stroke-width="3"/><circle cx="542" cy="121.19999999999999" r="5.5" fill="#ffffff" stroke="#41a9a5" stroke-width="3"/><circle cx="616" cy="138.0" r="5.5" fill="#ffffff" stroke="#41a9a5" stroke-width="3"/><path d="M134 330 H678" stroke="#c6cdd6" stroke-width="2"/><rect x="770" y="82" width="320" height="54" rx="10" fill="#ffffff" opacity="1" stroke="#c6cdd6"/><rect x="794" y="99" width="18" height="18" rx="4" fill="#41a9a5" opacity="1" stroke="none"/><text x="826" y="113" font-family="Poppins,sans-serif" font-size="14" fill="#1f2d40">Zestawienia okresowe</text><rect x="770" y="154" width="320" height="54" rx="10" fill="#ffffff" opacity="1" stroke="#c6cdd6"/><rect x="794" y="171" width="18" height="18" rx="4" fill="#41a9a5" opacity="1" stroke="none"/><text x="826" y="185" font-family="Poppins,sans-serif" font-size="14" fill="#1f2d40">Wskaźniki operacyjne</text><rect x="770" y="226" width="320" height="54" rx="10" fill="#ffffff" opacity="1" stroke="#c6cdd6"/><rect x="794" y="243" width="18" height="18" rx="4" fill="#41a9a5" opacity="1" stroke="none"/><text x="826" y="257" font-family="Poppins,sans-serif" font-size="14" fill="#1f2d40">Eksport danych</text><text x="48" y="372" font-family="Poppins,Segoe UI,sans-serif" font-size="15" font-weight="600" letter-spacing="1.6" fill="#3d4a5c" opacity=".55">RAPORTY I STATYSTYKI</text></svg>