<svg xmlns="http://www.w3.org/2000/svg" viewBox="0 0 1200 420" width="1200" height="420" role="img">
<defs>
<linearGradient id="bg" x1="0" y1="0" x2="1" y2="1"><stop offset="0" stop-color="#eef1f5"/><stop offset="1" stop-color="#dfe3e9"/></linearGradient>
<linearGradient id="tealg" x1="0" y1="0" x2="1" y2="1"><stop offset="0" stop-color="#99d1ce"/><stop offset="1" stop-color="#41a9a5"/></linearGradient>
<linearGradient id="navyg" x1="0" y1="0" x2="0" y2="1"><stop offset="0" stop-color="#3d4a5c"/><stop offset="1" stop-color="#1f2d40"/></linearGradient>

</defs><circle cx="300" cy="208" r="104" fill="#ffffff" stroke="#c6cdd6" stroke-width="2"/><path d="M296 134 C326 172 348 188 348 218 C348 252 322 274 294 274 C264 274 244 250 244 216 C244 190 266 182 278 160 C282 174 290 182 298 188 C294 168 292 150 296 134 Z" fill="#41a9a5"/><path d="M292 202 C308 220 316 230 316 242 C316 258 304 266 292 266 C278 266 268 256 268 240 C268 226 280 216 292 202 Z" fill="#ffffff" opacity=".92"/><g transform="translate(560,120)"><rect x="0" y="0" width="120" height="120" rx="8" transform="rotate(45 60 60)" fill="#ffffff" stroke="#3d4a5c" stroke-width="3"/><text x="60" y="68" text-anchor="middle" font-family="Poppins,sans-serif" font-size="17" font-weight="600" fill="#1f2d40">IMDG</text></g><rect x="800" y="86" width="288" height="52" rx="10" fill="#ffffff" opacity="1" stroke="#c6cdd6"/><circle cx="826" cy="112" r="13" fill="none" stroke="#41a9a5" stroke-width="2.4"/><path d="M820.15 112.65 l4.55 4.68 l8.06 -9.36" fill="none" stroke="#41a9a5" stroke-width="2.6" stroke-linecap="round" stroke-linejoin="round"/><text x="856" y="117" font-family="Poppins,sans-serif" font-size="13.5" fill="#1f2d40">Zgłoszenie ładunku</text><rect x="800" y="156" width="288" height="52" rx="10" fill="#ffffff" opacity="1" stroke="#c6cdd6"/><circle cx="826" cy="182" r="13" fill="none" stroke="#41a9a5" stroke-width="2.4"/><path d="M820.15 182.65 l4.55 4.68 l8.06 -9.36" fill="none" stroke="#41a9a5" stroke-width="2.6" stroke-linecap="round" stroke-linejoin="round"/><text x="856" y="187" font-family="Poppins,sans-serif" font-size="13.5" fill="#1f2d40">Ocena zagrożeń</text><rect x="800" y="226" width="288" height="52" rx="10" fill="#ffffff" opacity="1" stroke="#c6cdd6"/><circle cx="826" cy="252" r="13" fill="none" stroke="#41a9a5" stroke-width="2.4"/><path d="M820.15 252.65 l4.55 4.68 l8.06 -9.36" fill="none" stroke="#41a9a5" stroke-width="2.6" stroke-linecap="round" stroke-linejoin="round"/><text x="856" y="257" font-family="Poppins,sans-serif" font-size="13.5" fill="#1f2d40">Nadzór służb</text><text x="48" y="372" font-family="Poppins,Segoe UI,sans-serif" font-size="15" font-weight="600" letter-spacing="1.6" fill="#3d4a5c" opacity=".55">BEZPIECZEŃSTWO OPERACJI</text></svg>