<svg xmlns="http://www.w3.org/2000/svg" viewBox="0 0 1200 420" width="1200" height="420" role="img">
<defs>
<linearGradient id="bg" x1="0" y1="0" x2="1" y2="1"><stop offset="0" stop-color="#eef1f5"/><stop offset="1" stop-color="#dfe3e9"/></linearGradient>
<linearGradient id="tealg" x1="0" y1="0" x2="1" y2="1"><stop offset="0" stop-color="#99d1ce"/><stop offset="1" stop-color="#41a9a5"/></linearGradient>
<linearGradient id="navyg" x1="0" y1="0" x2="0" y2="1"><stop offset="0" stop-color="#3d4a5c"/><stop offset="1" stop-color="#1f2d40"/></linearGradient>

</defs><path d="M300 92 l96 34 v72 c0 62-40 96-96 116 -56-20-96-54-96-116 v-72 z" fill="url(#navyg)"/><path d="M262 216 l30 30 l58-64" fill="none" stroke="#41a9a5" stroke-width="9" stroke-linecap="round" stroke-linejoin="round"/><rect x="520" y="82" width="560" height="52" rx="10" fill="#ffffff" opacity="1" stroke="#c6cdd6"/><circle cx="556" cy="108" r="14" fill="none" stroke="#41a9a5" stroke-width="2.4"/><path d="M549.7 108.7 l4.8999999999999995 5.04 l8.68 -10.08" fill="none" stroke="#41a9a5" stroke-width="2.6" stroke-linecap="round" stroke-linejoin="round"/><text x="588" y="113" font-family="Poppins,sans-serif" font-size="14.5" fill="#1f2d40">Uwierzytelnianie użytkowników</text><rect x="520" y="144" width="560" height="52" rx="10" fill="#ffffff" opacity="1" stroke="#c6cdd6"/><circle cx="556" cy="170" r="14" fill="none" stroke="#41a9a5" stroke-width="2.4"/><path d="M549.7 170.7 l4.8999999999999995 5.04 l8.68 -10.08" fill="none" stroke="#41a9a5" stroke-width="2.6" stroke-linecap="round" stroke-linejoin="round"/><text x="588" y="175" font-family="Poppins,sans-serif" font-size="14.5" fill="#1f2d40">Rozliczalność operacji</text><rect x="520" y="206" width="560" height="52" rx="10" fill="#ffffff" opacity="1" stroke="#c6cdd6"/><circle cx="556" cy="232" r="14" fill="none" stroke="#41a9a5" stroke-width="2.4"/><path d="M549.7 232.7 l4.8999999999999995 5.04 l8.68 -10.08" fill="none" stroke="#41a9a5" stroke-width="2.6" stroke-linecap="round" stroke-linejoin="round"/><text x="588" y="237" font-family="Poppins,sans-serif" font-size="14.5" fill="#1f2d40">Kontrola uprawnień</text><rect x="520" y="268" width="560" height="52" rx="10" fill="#ffffff" opacity="1" stroke="#c6cdd6"/><circle cx="556" cy="294" r="14" fill="none" stroke="#41a9a5" stroke-width="2.4"/><path d="M549.7 294.7 l4.8999999999999995 5.04 l8.68 -10.08" fill="none" stroke="#41a9a5" stroke-width="2.6" stroke-linecap="round" stroke-linejoin="round"/><text x="588" y="299" font-family="Poppins,sans-serif" font-size="14.5" fill="#1f2d40">Zgodność z przepisami</text><text x="48" y="372" font-family="Poppins,Segoe UI,sans-serif" font-size="15" font-weight="600" letter-spacing="1.6" fill="#3d4a5c" opacity=".55">BEZPIECZEŃSTWO I ZGODNOŚĆ</text></svg>